<svg width="51" height="51" viewBox="0 0 51 51" fill="none" xmlns="http://www.w3.org/2000/svg">
<path d="M14.6797 4.09651L22.9108 1.53369L32.0164 2.19701L39.1319 5.8754L44.2274 10.3679L46.8807 14.4985L42.5691 15.0111L40.6395 16.2171L39.1319 18.2071L38.6194 21.2824L37.5038 23.5437L35.7551 25.0211L32.8003 25.5337L30.4787 24.6292L28.5189 22.1568L27.9159 19.0513L27.0415 17.1518L25.534 15.7347L24.0566 15.0111H21.1319L18.7651 14.1518L16.4284 12.6895L15.1621 10.3679L14.6797 4.09651Z" fill="#83CC88"/>
<path d="M1.59424 22.8506H7.53394L10.7299 24.2074L12.2978 27.4938V31.8054L13.8656 34.8807L18.1169 36.2375L21.1319 37.5943L22.5189 39.9679L22.8204 49.2928L18.5088 48.2677L12.6897 45.877L7.14198 40.9982L3.40328 34.8807L1.59424 29.0616V22.8506Z" fill="#83CC88"/>
<path d="M35.544 37.2928L38.1671 36.2375H46.7601L43.9862 41.0918L39.4334 45.2224L33.5239 47.8154L33.2827 42.9008L33.7349 39.735L35.544 37.2928Z" fill="#83CC88"/>
<path d="M5.18206 12.358L10.1268 6.99115L14.6192 4.09668L14.9207 5.93588V8.25748L15.2223 10.2776L16.2775 12.358L18.0263 13.7449L20.0765 14.7097H22.2474L24.7197 15.2826L27.0112 16.8806L28.0665 19.2625L28.4283 21.0414L29.1821 23.2123L30.4484 24.4183L32.2273 25.6545L35.363 25.1419L37.2022 23.8153L38.6192 22.3077L39.1318 18.8705L40.2172 16.8806L41.9961 15.2826L44.5891 14.7097H46.971L48.6896 19.6243L49.4735 24.8705L48.9911 30.569L46.971 36.0866H38.3177L35.363 37.4736L33.5841 40.1268V48.0263L28.0665 49.4434L22.8202 49.1721L21.9459 38.7097L19.6846 36.5992L15.5238 35.6947L13.2625 33.8856L12.2373 31.6545V27.4032L10.368 24.4183L7.74487 22.6997H1.62427L2.80015 17.4535L5.18206 12.358Z" fill="#58A2C1"/>
<path d="M1.65033 22.8372H6.837C8.25148 22.8372 9.60804 23.3991 10.6082 24.3993C11.6084 25.3995 12.1703 26.7561 12.1703 28.1706V30.8372C12.1703 32.2517 12.7322 33.6083 13.7324 34.6085C14.7326 35.6087 16.0892 36.1706 17.5037 36.1706C18.9182 36.1706 20.2747 36.7325 21.2749 37.7327C22.2751 38.7329 22.837 40.0894 22.837 41.5039V49.3572M14.837 3.99724V8.17057C14.837 9.93868 15.5394 11.6344 16.7896 12.8846C18.0399 14.1349 19.7356 14.8372 21.5037 14.8372H22.837C24.2515 14.8372 25.608 15.3991 26.6082 16.3993C27.6084 17.3995 28.1703 18.7561 28.1703 20.1706C28.1703 21.5851 28.7322 22.9416 29.7324 23.9418C30.7326 24.942 32.0892 25.5039 33.5037 25.5039C34.9182 25.5039 36.2747 24.942 37.2749 23.9418C38.2751 22.9416 38.837 21.5851 38.837 20.1706C38.837 18.7561 39.3989 17.3995 40.3991 16.3993C41.3993 15.3991 42.7558 14.8372 44.1703 14.8372H47.0077M33.5037 48.1386V41.5039C33.5037 40.0894 34.0656 38.7329 35.0658 37.7327C36.066 36.7325 37.4225 36.1706 38.837 36.1706H47.0077M49.5037 25.5039C49.5037 28.6556 48.8829 31.7765 47.6768 34.6883C46.4707 37.6001 44.7028 40.2459 42.4742 42.4745C40.2456 44.7031 37.5999 46.4709 34.6881 47.677C31.7763 48.8831 28.6554 49.5039 25.5037 49.5039C22.3519 49.5039 19.2311 48.8831 16.3193 47.677C13.4074 46.4709 10.7617 44.7031 8.5331 42.4745C6.30449 40.2459 4.53667 37.6001 3.33055 34.6883C2.12444 31.7765 1.50366 28.6556 1.50366 25.5039C1.50366 19.1387 4.03223 13.0342 8.5331 8.53334C13.034 4.03247 19.1385 1.50391 25.5037 1.50391C31.8689 1.50391 37.9734 4.03247 42.4742 8.53334C46.9751 13.0342 49.5037 19.1387 49.5037 25.5039Z" stroke="black" stroke-width="3.00752" stroke-linecap="round" stroke-linejoin="round"/>
</svg>
